<svg xmlns="http://www.w3.org/2000/svg" viewBox="0 0 1400 920" font-family="Segoe UI, system-ui, -apple-system, sans-serif">
  <defs>
    <marker id="arrow" viewBox="0 0 10 6" refX="10" refY="3" markerWidth="8" markerHeight="6" orient="auto-start-reverse">
      <path d="M0,0 L10,3 L0,6 Z" fill="#999"/>
    </marker>
    <filter id="shadow" x="-4%" y="-4%" width="108%" height="116%">
      <feDropShadow dx="0" dy="1" stdDeviation="2" flood-opacity="0.08"/>
    </filter>
    <linearGradient id="inet-grad" x1="0" y1="0" x2="0" y2="1">
      <stop offset="0%" stop-color="#f0f4f8"/>
      <stop offset="100%" stop-color="#e2e8f0"/>
    </linearGradient>
  </defs>

  <!-- Background -->
  <rect width="1400" height="920" fill="#fff" rx="0"/>

  <!-- ============================================== -->
  <!-- INTERNET / TRANSPORT BAND                      -->
  <!-- ============================================== -->
  <rect x="40" y="50" width="1320" height="140" rx="16" fill="url(#inet-grad)" stroke="#cbd5e1" stroke-width="1"/>
  <text x="700" y="82" text-anchor="middle" font-size="20" font-weight="700" fill="#475569">Internet</text>

  <!-- ISP-A nodes (red) -->
  <g font-size="10" font-weight="600" fill="#fff">
    <!-- Lab 1 ISPs -->
    <rect x="120" y="100" width="80" height="32" rx="6" fill="#e74c3c" filter="url(#shadow)"/>
    <text x="160" y="120" text-anchor="middle">ISP-A</text>
    <text x="160" y="143" text-anchor="middle" fill="#94a3b8" font-size="9">AS 65010</text>
    <rect x="220" y="100" width="80" height="32" rx="6" fill="#3498db" filter="url(#shadow)"/>
    <text x="260" y="120" text-anchor="middle">ISP-B</text>
    <text x="260" y="143" text-anchor="middle" fill="#94a3b8" font-size="9">AS 65011</text>

    <!-- Lab 2 ISPs -->
    <rect x="560" y="100" width="80" height="32" rx="6" fill="#e74c3c" filter="url(#shadow)"/>
    <text x="600" y="120" text-anchor="middle">ISP-A</text>
    <text x="600" y="143" text-anchor="middle" fill="#94a3b8" font-size="9">AS 65012</text>
    <rect x="660" y="100" width="80" height="32" rx="6" fill="#3498db" filter="url(#shadow)"/>
    <text x="700" y="120" text-anchor="middle">ISP-B</text>
    <text x="700" y="143" text-anchor="middle" fill="#94a3b8" font-size="9">AS 65013</text>

    <!-- Lab 3 ISPs -->
    <rect x="1000" y="100" width="80" height="32" rx="6" fill="#e74c3c" filter="url(#shadow)"/>
    <text x="1040" y="120" text-anchor="middle">ISP-A</text>
    <text x="1040" y="143" text-anchor="middle" fill="#94a3b8" font-size="9">AS 65014</text>
    <rect x="1100" y="100" width="80" height="32" rx="6" fill="#3498db" filter="url(#shadow)"/>
    <text x="1140" y="120" text-anchor="middle">ISP-B</text>
    <text x="1140" y="143" text-anchor="middle" fill="#94a3b8" font-size="9">AS 65015</text>
  </g>

  <!-- Inter-Lab BGP lines -->
  <line x1="300" y1="116" x2="560" y2="116" stroke="#e74c3c" stroke-width="1.5" stroke-dasharray="6,4"/>
  <line x1="300" y1="116" x2="1000" y2="116" stroke="#e74c3c" stroke-width="1" stroke-dasharray="6,4" opacity="0.4"/>
  <line x1="640" y1="116" x2="1000" y2="116" stroke="#e74c3c" stroke-width="1.5" stroke-dasharray="6,4"/>
  <line x1="300" y1="116" x2="560" y2="116" stroke="#3498db" stroke-width="1" stroke-dasharray="6,4" opacity="0.3" transform="translate(0,5)"/>

  <!-- Inter-Lab BGP label -->
  <rect x="390" y="88" width="120" height="18" rx="9" fill="#fef2f2" stroke="#fca5a5" stroke-width="0.5"/>
  <text x="450" y="100" text-anchor="middle" font-size="9" fill="#dc2626" font-weight="600">Inter-Lab BGP</text>
  <rect x="830" y="88" width="120" height="18" rx="9" fill="#fef2f2" stroke="#fca5a5" stroke-width="0.5"/>
  <text x="890" y="100" text-anchor="middle" font-size="9" fill="#dc2626" font-weight="600">Inter-Lab BGP</text>

  <!-- ============================================== -->
  <!-- WAN LINES from ISPs down to topologies         -->
  <!-- ============================================== -->
  <g stroke="#d1d5db" stroke-width="1.2">
    <!-- Lab 1 WAN lines -->
    <line x1="160" y1="132" x2="130" y2="285"/>
    <line x1="160" y1="132" x2="130" y2="445"/>
    <line x1="160" y1="132" x2="130" y2="605"/>
    <line x1="260" y1="132" x2="310" y2="285"/>
    <line x1="260" y1="132" x2="310" y2="445"/>
    <line x1="260" y1="132" x2="310" y2="605"/>

    <!-- Lab 2 WAN lines -->
    <line x1="600" y1="132" x2="570" y2="285"/>
    <line x1="600" y1="132" x2="570" y2="445"/>
    <line x1="600" y1="132" x2="570" y2="605"/>
    <line x1="700" y1="132" x2="750" y2="285"/>
    <line x1="700" y1="132" x2="750" y2="445"/>
    <line x1="700" y1="132" x2="750" y2="605"/>

    <!-- Lab 3 WAN lines -->
    <line x1="1040" y1="132" x2="1040" y2="285"/>
    <line x1="1040" y1="132" x2="1040" y2="445"/>
    <line x1="1040" y1="132" x2="1040" y2="605"/>
    <line x1="1140" y1="132" x2="1140" y2="285"/>
    <line x1="1140" y1="132" x2="1140" y2="445"/>
    <line x1="1140" y1="132" x2="1140" y2="605"/>
  </g>

  <!-- ============================================== -->
  <!-- TOPOLOGY 1: CHI-STL-DFW (ECOS + AOS-CX)       -->
  <!-- ============================================== -->
  <rect x="40" y="210" width="420" height="570" rx="12" fill="#fafbff" stroke="#c7d2fe" stroke-width="1"/>
  <text x="250" y="240" text-anchor="middle" font-size="16" font-weight="700" fill="#1e293b">CHI-STL-DFW</text>
  <text x="250" y="258" text-anchor="middle" font-size="11" fill="#64748b">ECOS + AOS-CX  |  NAD: vCX (RADIUS)</text>

  <!-- CHI site -->
  <g transform="translate(60,275)">
    <rect width="110" height="40" rx="6" fill="#4285F4" filter="url(#shadow)"/>
    <text x="55" y="24" text-anchor="middle" font-size="11" font-weight="600" fill="#fff">CHI-ECV-01</text>
    <line x1="110" y1="20" x2="150" y2="20" stroke="#94a3b8" stroke-width="1.5"/>
    <text x="130" y="14" text-anchor="middle" font-size="7" fill="#94a3b8">lan0</text>
    <rect x="150" y="0" width="100" height="40" rx="6" fill="#34A853" filter="url(#shadow)"/>
    <text x="200" y="24" text-anchor="middle" font-size="11" font-weight="600" fill="#fff">CHI-vCX-01</text>
    <line x1="250" y1="20" x2="280" y2="20" stroke="#94a3b8" stroke-width="1"/>
    <rect x="280" y="2" width="50" height="12" rx="3" fill="#7B1FA2"/>
    <text x="305" y="11" text-anchor="middle" font-size="7" fill="#fff">Managed</text>
    <rect x="280" y="16" width="50" height="12" rx="3" fill="#F57C00"/>
    <text x="305" y="25" text-anchor="middle" font-size="7" fill="#fff">Unmgd</text>
    <rect x="280" y="30" width="50" height="12" rx="3" fill="#00897B"/>
    <text x="305" y="39" text-anchor="middle" font-size="7" fill="#fff">Guest</text>
    <line x1="250" y1="8" x2="280" y2="8" stroke="#94a3b8" stroke-width="0.5"/>
    <line x1="250" y1="36" x2="280" y2="36" stroke="#94a3b8" stroke-width="0.5"/>
  </g>

  <!-- STL site -->
  <g transform="translate(60,435)">
    <rect width="110" height="40" rx="6" fill="#4285F4" filter="url(#shadow)"/>
    <text x="55" y="24" text-anchor="middle" font-size="11" font-weight="600" fill="#fff">STL-ECV-01</text>
    <line x1="110" y1="20" x2="150" y2="20" stroke="#94a3b8" stroke-width="1.5"/>
    <text x="130" y="14" text-anchor="middle" font-size="7" fill="#94a3b8">lan0</text>
    <rect x="150" y="0" width="100" height="40" rx="6" fill="#34A853" filter="url(#shadow)"/>
    <text x="200" y="24" text-anchor="middle" font-size="11" font-weight="600" fill="#fff">STL-vCX-01</text>
    <line x1="250" y1="20" x2="280" y2="20" stroke="#94a3b8" stroke-width="1"/>
    <rect x="280" y="2" width="50" height="12" rx="3" fill="#7B1FA2"/>
    <text x="305" y="11" text-anchor="middle" font-size="7" fill="#fff">Managed</text>
    <rect x="280" y="16" width="50" height="12" rx="3" fill="#F57C00"/>
    <text x="305" y="25" text-anchor="middle" font-size="7" fill="#fff">Unmgd</text>
    <rect x="280" y="30" width="50" height="12" rx="3" fill="#00897B"/>
    <text x="305" y="39" text-anchor="middle" font-size="7" fill="#fff">Guest</text>
    <line x1="250" y1="8" x2="280" y2="8" stroke="#94a3b8" stroke-width="0.5"/>
    <line x1="250" y1="36" x2="280" y2="36" stroke="#94a3b8" stroke-width="0.5"/>
  </g>

  <!-- DFW site -->
  <g transform="translate(60,595)">
    <rect width="110" height="40" rx="6" fill="#4285F4" filter="url(#shadow)"/>
    <text x="55" y="24" text-anchor="middle" font-size="11" font-weight="600" fill="#fff">DFW-ECV-01</text>
    <line x1="110" y1="20" x2="150" y2="20" stroke="#94a3b8" stroke-width="1.5"/>
    <text x="130" y="14" text-anchor="middle" font-size="7" fill="#94a3b8">lan0</text>
    <rect x="150" y="0" width="100" height="40" rx="6" fill="#34A853" filter="url(#shadow)"/>
    <text x="200" y="24" text-anchor="middle" font-size="11" font-weight="600" fill="#fff">DFW-vCX-01</text>
    <line x1="250" y1="20" x2="280" y2="20" stroke="#94a3b8" stroke-width="1"/>
    <rect x="280" y="2" width="50" height="12" rx="3" fill="#7B1FA2"/>
    <text x="305" y="11" text-anchor="middle" font-size="7" fill="#fff">Managed</text>
    <rect x="280" y="16" width="50" height="12" rx="3" fill="#F57C00"/>
    <text x="305" y="25" text-anchor="middle" font-size="7" fill="#fff">Unmgd</text>
    <rect x="280" y="30" width="50" height="12" rx="3" fill="#00897B"/>
    <text x="305" y="39" text-anchor="middle" font-size="7" fill="#fff">Guest</text>
    <line x1="250" y1="8" x2="280" y2="8" stroke="#94a3b8" stroke-width="0.5"/>
    <line x1="250" y1="36" x2="280" y2="36" stroke="#94a3b8" stroke-width="0.5"/>
  </g>

  <!-- ============================================== -->
  <!-- TOPOLOGY 2: SEA-SFO-LAX (ECOS + AOS-CX)       -->
  <!-- ============================================== -->
  <rect x="490" y="210" width="420" height="570" rx="12" fill="#fafbff" stroke="#c7d2fe" stroke-width="1"/>
  <text x="700" y="240" text-anchor="middle" font-size="16" font-weight="700" fill="#1e293b">SEA-SFO-LAX</text>
  <text x="700" y="258" text-anchor="middle" font-size="11" fill="#64748b">ECOS + AOS-CX  |  NAD: vCX (RADIUS)</text>

  <!-- SEA site -->
  <g transform="translate(510,275)">
    <rect width="110" height="40" rx="6" fill="#4285F4" filter="url(#shadow)"/>
    <text x="55" y="24" text-anchor="middle" font-size="11" font-weight="600" fill="#fff">SEA-ECV-01</text>
    <line x1="110" y1="20" x2="150" y2="20" stroke="#94a3b8" stroke-width="1.5"/>
    <text x="130" y="14" text-anchor="middle" font-size="7" fill="#94a3b8">lan0</text>
    <rect x="150" y="0" width="100" height="40" rx="6" fill="#34A853" filter="url(#shadow)"/>
    <text x="200" y="24" text-anchor="middle" font-size="11" font-weight="600" fill="#fff">SEA-vCX-01</text>
    <line x1="250" y1="20" x2="280" y2="20" stroke="#94a3b8" stroke-width="1"/>
    <rect x="280" y="2" width="50" height="12" rx="3" fill="#7B1FA2"/>
    <text x="305" y="11" text-anchor="middle" font-size="7" fill="#fff">Managed</text>
    <rect x="280" y="16" width="50" height="12" rx="3" fill="#F57C00"/>
    <text x="305" y="25" text-anchor="middle" font-size="7" fill="#fff">Unmgd</text>
    <rect x="280" y="30" width="50" height="12" rx="3" fill="#00897B"/>
    <text x="305" y="39" text-anchor="middle" font-size="7" fill="#fff">Guest</text>
    <line x1="250" y1="8" x2="280" y2="8" stroke="#94a3b8" stroke-width="0.5"/>
    <line x1="250" y1="36" x2="280" y2="36" stroke="#94a3b8" stroke-width="0.5"/>
  </g>

  <!-- SFO site -->
  <g transform="translate(510,435)">
    <rect width="110" height="40" rx="6" fill="#4285F4" filter="url(#shadow)"/>
    <text x="55" y="24" text-anchor="middle" font-size="11" font-weight="600" fill="#fff">SFO-ECV-01</text>
    <line x1="110" y1="20" x2="150" y2="20" stroke="#94a3b8" stroke-width="1.5"/>
    <text x="130" y="14" text-anchor="middle" font-size="7" fill="#94a3b8">lan0</text>
    <rect x="150" y="0" width="100" height="40" rx="6" fill="#34A853" filter="url(#shadow)"/>
    <text x="200" y="24" text-anchor="middle" font-size="11" font-weight="600" fill="#fff">SFO-vCX-01</text>
    <line x1="250" y1="20" x2="280" y2="20" stroke="#94a3b8" stroke-width="1"/>
    <rect x="280" y="2" width="50" height="12" rx="3" fill="#7B1FA2"/>
    <text x="305" y="11" text-anchor="middle" font-size="7" fill="#fff">Managed</text>
    <rect x="280" y="16" width="50" height="12" rx="3" fill="#F57C00"/>
    <text x="305" y="25" text-anchor="middle" font-size="7" fill="#fff">Unmgd</text>
    <rect x="280" y="30" width="50" height="12" rx="3" fill="#00897B"/>
    <text x="305" y="39" text-anchor="middle" font-size="7" fill="#fff">Guest</text>
    <line x1="250" y1="8" x2="280" y2="8" stroke="#94a3b8" stroke-width="0.5"/>
    <line x1="250" y1="36" x2="280" y2="36" stroke="#94a3b8" stroke-width="0.5"/>
  </g>

  <!-- LAX site -->
  <g transform="translate(510,595)">
    <rect width="110" height="40" rx="6" fill="#4285F4" filter="url(#shadow)"/>
    <text x="55" y="24" text-anchor="middle" font-size="11" font-weight="600" fill="#fff">LAX-ECV-01</text>
    <line x1="110" y1="20" x2="150" y2="20" stroke="#94a3b8" stroke-width="1.5"/>
    <text x="130" y="14" text-anchor="middle" font-size="7" fill="#94a3b8">lan0</text>
    <rect x="150" y="0" width="100" height="40" rx="6" fill="#34A853" filter="url(#shadow)"/>
    <text x="200" y="24" text-anchor="middle" font-size="11" font-weight="600" fill="#fff">LAX-vCX-01</text>
    <line x1="250" y1="20" x2="280" y2="20" stroke="#94a3b8" stroke-width="1"/>
    <rect x="280" y="2" width="50" height="12" rx="3" fill="#7B1FA2"/>
    <text x="305" y="11" text-anchor="middle" font-size="7" fill="#fff">Managed</text>
    <rect x="280" y="16" width="50" height="12" rx="3" fill="#F57C00"/>
    <text x="305" y="25" text-anchor="middle" font-size="7" fill="#fff">Unmgd</text>
    <rect x="280" y="30" width="50" height="12" rx="3" fill="#00897B"/>
    <text x="305" y="39" text-anchor="middle" font-size="7" fill="#fff">Guest</text>
    <line x1="250" y1="8" x2="280" y2="8" stroke="#94a3b8" stroke-width="0.5"/>
    <line x1="250" y1="36" x2="280" y2="36" stroke="#94a3b8" stroke-width="0.5"/>
  </g>

  <!-- ============================================== -->
  <!-- TOPOLOGY 3: JFK-RDU-MIA (ECOS Only)            -->
  <!-- ============================================== -->
  <rect x="940" y="210" width="420" height="570" rx="12" fill="#fffbf5" stroke="#fed7aa" stroke-width="1"/>
  <text x="1150" y="240" text-anchor="middle" font-size="16" font-weight="700" fill="#1e293b">JFK-RDU-MIA</text>
  <text x="1150" y="258" text-anchor="middle" font-size="11" fill="#64748b">ECOS Only  |  NAD: EC-V (RADIUS)</text>

  <!-- JFK site -->
  <g transform="translate(975,275)">
    <rect width="110" height="40" rx="6" fill="#4285F4" filter="url(#shadow)"/>
    <text x="55" y="24" text-anchor="middle" font-size="11" font-weight="600" fill="#fff">JFK-ECV-01</text>
    <line x1="110" y1="8" x2="165" y2="8" stroke="#94a3b8" stroke-width="1"/>
    <line x1="110" y1="20" x2="165" y2="20" stroke="#94a3b8" stroke-width="1"/>
    <line x1="110" y1="32" x2="165" y2="32" stroke="#94a3b8" stroke-width="1"/>
    <text x="137" y="6" text-anchor="middle" font-size="6" fill="#94a3b8">lan0</text>
    <text x="137" y="18" text-anchor="middle" font-size="6" fill="#94a3b8">lan1</text>
    <text x="137" y="30" text-anchor="middle" font-size="6" fill="#94a3b8">lan2</text>
    <rect x="165" y="1" width="50" height="12" rx="3" fill="#7B1FA2"/>
    <text x="190" y="10" text-anchor="middle" font-size="7" fill="#fff">Managed</text>
    <rect x="165" y="15" width="50" height="12" rx="3" fill="#F57C00"/>
    <text x="190" y="24" text-anchor="middle" font-size="7" fill="#fff">Unmgd</text>
    <rect x="165" y="29" width="50" height="12" rx="3" fill="#00897B"/>
    <text x="190" y="38" text-anchor="middle" font-size="7" fill="#fff">Guest</text>
  </g>

  <!-- RDU site -->
  <g transform="translate(975,435)">
    <rect width="110" height="40" rx="6" fill="#4285F4" filter="url(#shadow)"/>
    <text x="55" y="24" text-anchor="middle" font-size="11" font-weight="600" fill="#fff">RDU-ECV-01</text>
    <line x1="110" y1="8" x2="165" y2="8" stroke="#94a3b8" stroke-width="1"/>
    <line x1="110" y1="20" x2="165" y2="20" stroke="#94a3b8" stroke-width="1"/>
    <line x1="110" y1="32" x2="165" y2="32" stroke="#94a3b8" stroke-width="1"/>
    <text x="137" y="6" text-anchor="middle" font-size="6" fill="#94a3b8">lan0</text>
    <text x="137" y="18" text-anchor="middle" font-size="6" fill="#94a3b8">lan1</text>
    <text x="137" y="30" text-anchor="middle" font-size="6" fill="#94a3b8">lan2</text>
    <rect x="165" y="1" width="50" height="12" rx="3" fill="#7B1FA2"/>
    <text x="190" y="10" text-anchor="middle" font-size="7" fill="#fff">Managed</text>
    <rect x="165" y="15" width="50" height="12" rx="3" fill="#F57C00"/>
    <text x="190" y="24" text-anchor="middle" font-size="7" fill="#fff">Unmgd</text>
    <rect x="165" y="29" width="50" height="12" rx="3" fill="#00897B"/>
    <text x="190" y="38" text-anchor="middle" font-size="7" fill="#fff">Guest</text>
  </g>

  <!-- MIA site -->
  <g transform="translate(975,595)">
    <rect width="110" height="40" rx="6" fill="#4285F4" filter="url(#shadow)"/>
    <text x="55" y="24" text-anchor="middle" font-size="11" font-weight="600" fill="#fff">MIA-ECV-01</text>
    <line x1="110" y1="8" x2="165" y2="8" stroke="#94a3b8" stroke-width="1"/>
    <line x1="110" y1="20" x2="165" y2="20" stroke="#94a3b8" stroke-width="1"/>
    <line x1="110" y1="32" x2="165" y2="32" stroke="#94a3b8" stroke-width="1"/>
    <text x="137" y="6" text-anchor="middle" font-size="6" fill="#94a3b8">lan0</text>
    <text x="137" y="18" text-anchor="middle" font-size="6" fill="#94a3b8">lan1</text>
    <text x="137" y="30" text-anchor="middle" font-size="6" fill="#94a3b8">lan2</text>
    <rect x="165" y="1" width="50" height="12" rx="3" fill="#7B1FA2"/>
    <text x="190" y="10" text-anchor="middle" font-size="7" fill="#fff">Managed</text>
    <rect x="165" y="15" width="50" height="12" rx="3" fill="#F57C00"/>
    <text x="190" y="24" text-anchor="middle" font-size="7" fill="#fff">Unmgd</text>
    <rect x="165" y="29" width="50" height="12" rx="3" fill="#00897B"/>
    <text x="190" y="38" text-anchor="middle" font-size="7" fill="#fff">Guest</text>
  </g>

  <!-- ============================================== -->
  <!-- LEGEND                                          -->
  <!-- ============================================== -->
  <g transform="translate(40,808)">
    <rect width="1320" height="90" rx="10" fill="#f8fafc" stroke="#e2e8f0" stroke-width="1"/>

    <!-- Row 1: Node types -->
    <text x="20" y="22" font-size="10" font-weight="700" fill="#475569">Nodes</text>
    <rect x="70" y="10" width="50" height="16" rx="4" fill="#4285F4"/>
    <text x="95" y="22" text-anchor="middle" font-size="8" fill="#fff">EC-V</text>
    <text x="130" y="22" font-size="9" fill="#64748b">EdgeConnect</text>

    <rect x="220" y="10" width="50" height="16" rx="4" fill="#34A853"/>
    <text x="245" y="22" text-anchor="middle" font-size="8" fill="#fff">vCX</text>
    <text x="280" y="22" font-size="9" fill="#64748b">AOS-CX Switch</text>

    <rect x="400" y="10" width="50" height="16" rx="4" fill="#e74c3c"/>
    <text x="425" y="22" text-anchor="middle" font-size="8" fill="#fff">ISP-A</text>
    <rect x="460" y="10" width="50" height="16" rx="4" fill="#3498db"/>
    <text x="485" y="22" text-anchor="middle" font-size="8" fill="#fff">ISP-B</text>
    <text x="520" y="22" font-size="9" fill="#64748b">Transport (dnsmasq)</text>

    <!-- Row 1: Client segments -->
    <rect x="700" y="10" width="50" height="16" rx="4" fill="#7B1FA2"/>
    <text x="725" y="22" text-anchor="middle" font-size="8" fill="#fff">Mgd</text>
    <rect x="760" y="10" width="50" height="16" rx="4" fill="#F57C00"/>
    <text x="785" y="22" text-anchor="middle" font-size="8" fill="#fff">Unmgd</text>
    <rect x="820" y="10" width="50" height="16" rx="4" fill="#00897B"/>
    <text x="845" y="22" text-anchor="middle" font-size="8" fill="#fff">Guest</text>
    <text x="880" y="22" font-size="9" fill="#64748b">Test Clients (DHCP)</text>

    <!-- Row 2: Features -->
    <text x="20" y="52" font-size="10" font-weight="700" fill="#475569">Features</text>

    <line x1="80" y1="48" x2="130" y2="48" stroke="#e74c3c" stroke-width="1.5" stroke-dasharray="6,4"/>
    <text x="140" y="52" font-size="9" fill="#64748b">Inter-Lab eBGP (FRR on transport nodes, RFC1918 filtering)</text>

    <text x="500" y="52" font-size="9" fill="#64748b"><tspan font-weight="600" fill="#475569">NAC: </tspan>802.1X/MAC-auth with RADIUS on NAD devices</text>

    <!-- Row 3: Architecture note -->
    <text x="20" y="72" font-size="10" font-weight="700" fill="#475569">Stack</text>
    <text x="80" y="72" font-size="9" fill="#64748b">CHI-STL-DFW / SEA-SFO-LAX: OSPF underlay + eBGP EVPN overlay + VXLAN (6 VNIs) + 3 VRFs + DHCP (vCX)</text>
    <text x="80" y="84" font-size="9" fill="#64748b">JFK-RDU-MIA: EC-V serves clients directly on lan0/lan1/lan2 with per-segment DHCP pools (no OSPF/BGP/VXLAN)</text>
  </g>

  <!-- wan0/wan1 labels on topology sections -->
  <text x="98" y="278" text-anchor="middle" font-size="7" fill="#94a3b8">wan0</text>
  <text x="342" y="278" text-anchor="middle" font-size="7" fill="#94a3b8">wan1</text>
  <text x="538" y="278" text-anchor="middle" font-size="7" fill="#94a3b8">wan0</text>
  <text x="782" y="278" text-anchor="middle" font-size="7" fill="#94a3b8">wan1</text>
  <text x="1040" y="278" text-anchor="middle" font-size="7" fill="#94a3b8">wan0</text>
  <text x="1140" y="278" text-anchor="middle" font-size="7" fill="#94a3b8">wan1</text>
</svg>
